<svg width="20" height="17" viewBox="0 0 21 19" fill="none" class="cart-drawer-icon"><path d="M20.8125 4.49617C20.716 4.36129 20.587 4.25104 20.4367 4.17487C20.2864 4.0987 20.1192 4.05889 19.9495 4.05883H5.5995L4.38783 1.2481C4.22943 0.877638 3.96052 0.56112 3.61535 0.338855C3.27017 0.116589 2.86436 -0.00136539 2.44959 1.19256e-05H0V2.02942H2.44959L7.43065 13.5818C7.51044 13.7667 7.64503 13.9246 7.81749 14.0356C7.98994 14.1467 8.19255 14.2059 8.39978 14.2059H16.7996C17.2374 14.2059 17.629 13.9431 17.7834 13.5484L20.9333 5.43071C20.9928 5.27711 21.0129 5.11185 20.9919 4.94908C20.9709 4.78632 20.9093 4.63091 20.8125 4.49617ZM16.0719 12.1765H9.10011L6.47518 6.08824H18.4344L16.0719 12.1765Z" fill="#515151"/><path d="M8.95598 18.5294C9.80878 18.5294 10.5001 17.8381 10.5001 16.9853C10.5001 16.1325 9.80878 15.4412 8.95598 15.4412C8.10319 15.4412 7.41187 16.1325 7.41187 16.9853C7.41187 17.8381 8.10319 18.5294 8.95598 18.5294Z" fill="#515151"/><path d="M16.3676 18.5294C17.2204 18.5294 17.9117 17.8381 17.9117 16.9853C17.9117 16.1325 17.2204 15.4412 16.3676 15.4412C15.5148 15.4412 14.8235 16.1325 14.8235 16.9853C14.8235 17.8381 15.5148 18.5294 16.3676 18.5294Z" fill="#515151"/></svg>
