<svg width="24" height="24" viewBox="0 0 24 24" fill="#00584b" xmlns="http://www.w3.org/2000/svg"><path d="M23.612 13.2672C24.1293 12.4913 24.1293 11.4827 23.612 10.7326L22.7068 9.38789C22.6292 9.23272 22.6034 9.07755 22.6034 8.89658L22.7068 7.26728C22.7586 6.33625 22.2671 5.48281 21.4396 5.06908L19.9913 4.34501C19.8361 4.26742 19.7327 4.16403 19.6552 4.00886L18.9311 2.56054C18.5174 1.7329 17.6379 1.24159 16.7329 1.29337L15.1034 1.39658C14.9482 1.39658 14.7673 1.37078 14.6379 1.26722L13.2931 0.387972C12.5173 -0.129324 11.5345 -0.129324 10.7586 0.387972L9.41387 1.2932C9.23273 1.37078 9.07755 1.39658 8.89658 1.39658L7.26728 1.2932C6.33625 1.24141 5.48281 1.73291 5.06908 2.56037L4.34501 4.00869C4.26742 4.16386 4.16403 4.26725 4.00886 4.34484L2.56054 5.06891C1.7329 5.48264 1.24159 6.36206 1.29337 7.26711L1.39658 8.89658C1.39658 9.05175 1.37078 9.23273 1.26722 9.36209L0.387972 10.7069C-0.129324 11.4827 -0.129324 12.4913 0.387972 13.2414L1.2932 14.5861C1.37078 14.7673 1.39658 14.9224 1.39658 15.1034L1.2932 16.7327C1.24141 17.6637 1.73291 18.5172 2.56037 18.9309L4.00869 19.655C4.16386 19.7326 4.26725 19.8619 4.34484 19.9911L5.06891 21.4395C5.48264 22.2671 6.36206 22.7584 7.26711 22.7066L8.89658 22.6034C9.05175 22.6034 9.23273 22.6292 9.36209 22.7328L10.7069 23.612C11.0948 23.8706 11.5345 24 11.974 24C12.4137 24 12.8533 23.8706 13.2412 23.612L14.586 22.7068C14.7153 22.6292 14.8963 22.5774 15.0515 22.5774L16.6808 22.6808C17.6118 22.7326 18.4652 22.2411 18.879 21.4137L19.603 19.9653C19.6806 19.8102 19.784 19.7068 19.9392 19.6292L21.3875 18.9051C22.2151 18.4914 22.7065 17.612 22.6547 16.7069L22.6034 15.1034C22.6034 14.9482 22.6292 14.7673 22.7328 14.6379L23.612 13.2672ZM22.3189 12.4137L21.4396 13.7585C21.1551 14.1722 21.0259 14.6637 21.0517 15.155L21.1551 16.7843C21.1809 17.0947 20.9999 17.3792 20.7414 17.5084L19.293 18.2325C18.8533 18.4652 18.4914 18.8273 18.2586 19.2669L17.5346 20.7152C17.4052 20.9997 17.1208 21.1549 16.8105 21.1289L15.181 21.0517C14.6897 21.0259 14.1982 21.1551 13.7845 21.4396L12.4397 22.3189C12.1811 22.474 11.8448 22.474 11.6121 22.3189L10.2673 21.4396C9.87939 21.1811 9.43968 21.0517 9.00014 21.0517H8.87077L7.24148 21.1551C6.93113 21.1809 6.64659 20.9999 6.5174 20.7414L5.79333 19.293C5.56057 18.8533 5.19845 18.4914 4.75892 18.2586L3.31059 17.5345C3.02605 17.4052 2.87088 17.1208 2.89686 16.8105L3.00025 15.1812C3.02606 14.6899 2.89686 14.1984 2.61232 13.7846L1.73308 12.4399C1.57791 12.1813 1.57791 11.845 1.73308 11.6122L2.61232 10.2675C2.89686 9.85375 3.02605 9.36226 3.00025 8.87094L2.89686 7.24164C2.87106 6.9313 3.05203 6.64676 3.31059 6.51757L4.75892 5.7935C5.19863 5.56074 5.56057 5.19862 5.79333 4.75908L6.5174 3.31076C6.64677 3.02622 6.93113 2.87105 7.24148 2.89703L8.87077 3.00042C9.36209 3.02622 9.85358 2.89703 10.2673 2.61249L11.6121 1.73325C11.8706 1.57808 12.207 1.57808 12.4397 1.73325L13.7845 2.61249C14.1982 2.89703 14.6897 3.02622 15.181 3.00042L16.8103 2.89703C17.1206 2.87123 17.4052 3.0522 17.5344 3.31076L18.2584 4.75908C18.4912 5.19879 18.8533 5.56074 19.2929 5.7935L20.7412 6.51757C21.0257 6.64694 21.1809 6.9313 21.1549 7.24164L21.0517 8.81898C21.0259 9.3103 21.1551 9.80179 21.4396 10.2155L22.3189 11.5603C22.4998 11.8448 22.4998 12.1552 22.3189 12.4137L22.3189 12.4137Z"></path><path d="M9.02692 11.4825C10.6044 11.4825 11.8976 10.1894 11.8976 8.61188C11.8976 7.03436 10.6044 5.74121 9.02692 5.74121C7.4494 5.74121 6.15625 7.03436 6.15625 8.61188C6.15625 10.2154 7.42342 11.4825 9.02692 11.4825ZM9.02692 7.3189C9.75099 7.3189 10.3459 7.91378 10.3459 8.63786C10.3459 9.36193 9.75099 9.93083 9.02692 9.93083C8.30284 9.93083 7.70796 9.33595 7.70796 8.61188C7.70796 7.8878 8.27686 7.3189 9.02692 7.3189Z"></path><path d="M14.9743 12.5176C13.3968 12.5176 12.1036 13.8107 12.1036 15.3882C12.1036 16.9658 13.3968 18.2589 14.9743 18.2589C16.5518 18.2589 17.845 16.9658 17.845 15.3882C17.845 13.7847 16.5778 12.5176 14.9743 12.5176ZM14.9743 16.6812C14.2502 16.6812 13.6553 16.0863 13.6553 15.3623C13.6553 14.6382 14.2502 14.0433 14.9743 14.0433C15.6984 14.0433 16.2933 14.6382 16.2933 15.3623C16.2933 16.0865 15.7244 16.6812 14.9743 16.6812Z"></path><path d="M17.4817 6.51694C17.1713 6.20659 16.68 6.20659 16.3955 6.51694L6.51596 16.3703C6.20562 16.6806 6.20562 17.172 6.51596 17.4565C6.67113 17.6117 6.87808 17.6893 7.05906 17.6893C7.24003 17.6893 7.44699 17.6117 7.60216 17.4565L17.4555 7.60313C17.7659 7.31877 17.7659 6.82728 17.4815 6.51694H17.4817Z"></path></svg>