<svg width="24" height="24" viewBox="0 0 24 24" fill="none"><path d="M4 13V21H11V13H4ZM12 13V21H19V13H12ZM20 13V22H3V13H2V7H5.04L5 6.5C5 5.57174 5.36875 4.6815 6.02513 4.02513C6.6815 3.36875 7.57174 3 8.5 3C9.77 3 10.89 3.68 11.5 4.7C12.11 3.68 13.23 3 14.5 3C15.4283 3 16.3185 3.36875 16.9749 4.02513C17.6313 4.6815 18 5.57174 18 6.5L17.96 7H21V13H20ZM3 8V12H11V8H3ZM20 12V8H12V12H20ZM16.95 7L17 6.5C17 5.83696 16.7366 5.20107 16.2678 4.73223C15.7989 4.26339 15.163 4 14.5 4C13.837 4 13.2011 4.26339 12.7322 4.73223C12.2634 5.20107 12 5.83696 12 6.5V7H16.95ZM11 7V6.5C11 5.83696 10.7366 5.20107 10.2678 4.73223C9.79893 4.26339 9.16304 4 8.5 4C7.83696 4 7.20107 4.26339 6.73223 4.73223C6.26339 5.20107 6 5.83696 6 6.5L6.05 7H11Z" fill="inherit;"/></svg>