<svg xmlns="http://www.w3.org/2000/svg" width="7" height="11" fill="none"><g clip-path="url(#A)" fill="#00584b"><path d="M3.673 10.517S-.909 8.031.173 6.645C1.248 5.259 3.68 10.51 3.68 10.51l-.007.007zm0-2.598S-.917 5.44.166 4.054s3.507 3.865 3.507 3.865zm-.007-2.591S-.44 3.102.527 1.863s3.139 3.459 3.139 3.459v.007z"/><path d="M3.327 10.517s4.582-2.479 3.507-3.865-3.507 3.865-3.507 3.865zm.007-2.598S7.916 5.44 6.841 4.054 3.334 7.919 3.334 7.919zm.007-2.591s4.258-2.304 3.255-3.592-3.255 3.592-3.255 3.592z"/><path d="M3.486 5.167S5.355.406 3.608.021c-1.746-.392-.13 5.146-.13 5.146h.007z"/><path d="M3.767 4.908h-.419V11h.419V4.908z"/></g><defs><clipPath id="A"><path fill="#fff" d="M0 0h7v11H0z"/></clipPath></defs></svg>