<svg width="21" height="21" viewBox="0 0 21 21" fill="none" xmlns="http://www.w3.org/2000/svg">
<path d="M14.8574 0.144327C14.7622 0.0491623 14.6315 -0.00312589 14.4966 1.14026e-05L12.4448 0.0533454C12.3182 0.0564827 12.199 0.107725 12.1091 0.197661L10.0259 2.28082L0.197831 12.1089C0.108941 12.1978 0.0576982 12.3181 0.0535152 12.4446L0.000181181 14.4964C-0.00713917 14.7683 0.208288 14.9942 0.479141 15.0015C0.487507 15.0015 0.495874 15.0015 0.50424 15.0015L2.03838 14.9618L1.99864 16.4959C1.99132 16.7678 2.20674 16.9937 2.47864 17C2.48701 17 2.49538 17 2.50374 17L4.03788 16.9602L3.99814 18.4944C3.99082 18.7663 4.20625 18.9921 4.4771 18.9995C4.48547 18.9995 4.49383 18.9995 4.5022 18.9995L6.03633 18.9597L5.9966 20.4939C5.98928 20.7658 6.2047 20.9916 6.47556 20.999C6.47974 20.999 6.48392 20.999 6.48811 20.999H6.50065L8.55244 20.9456C8.67898 20.9425 8.7982 20.8913 8.88813 20.8013L18.7173 10.9722L20.7994 8.89006C20.8883 8.80117 20.9406 8.6809 20.9437 8.55437L20.997 6.50258C21.0044 6.23068 20.79 6.00479 20.5181 5.99747C20.5097 5.99747 20.5014 5.99747 20.493 5.99747L18.9588 6.03721L18.9986 4.50307C19.0059 4.23118 18.7905 4.00529 18.5186 3.99902C18.5102 3.99902 18.5019 3.99902 18.4935 3.99902L16.9593 4.03875L16.9991 2.50462C17.0064 2.23272 16.791 2.00683 16.5191 2.00056C16.5107 2.00056 16.5023 2.00056 16.494 2.00056L14.9598 2.0403L14.9996 0.506162C15.0027 0.371258 14.9515 0.240537 14.8553 0.145373L14.8574 0.144327ZM8.33388 19.9678L6.99635 20.0024L7.03609 18.4682C7.04341 18.1963 6.82902 17.9704 6.55713 17.9631C6.55294 17.9631 6.54876 17.9631 6.54458 17.9631H6.53203L4.99789 18.0028L5.03763 16.4687C5.04495 16.1968 4.83057 15.9709 4.55867 15.9636C4.5503 15.9636 4.54194 15.9636 4.53357 15.9636L2.99943 16.0033L3.03917 14.4692C3.04649 14.1973 2.83211 13.9714 2.56021 13.9641C2.55185 13.9641 2.54348 13.9641 2.53511 13.9641L1.00098 14.0038L1.03549 12.6663L10.3752 3.32345L17.6767 10.625L8.33388 19.9678ZM16.0035 2.99717L15.9638 4.53131C15.9565 4.80321 16.1708 5.02909 16.4427 5.03641C16.4511 5.03641 16.4595 5.03641 16.4678 5.03641L18.002 4.99667L17.9622 6.53081C17.9549 6.80271 18.1693 7.02859 18.4412 7.03592C18.4496 7.03592 18.4579 7.03592 18.4663 7.03592L20.0004 6.99618L19.9659 8.33371L18.3701 9.92955L11.0706 2.62802L12.6665 1.03218L14.004 0.997671L13.9643 2.53181C13.957 2.80371 14.1713 3.02959 14.4432 3.03691C14.4516 3.03691 14.46 3.03691 14.4683 3.03691L16.0025 2.99717H16.0035ZM10.5833 6.84768V14.9712C10.5833 15.2431 10.3627 15.4637 10.0908 15.4637C9.81887 15.4637 9.59821 15.2431 9.59821 14.9712V6.84768C9.59821 6.57578 9.81887 6.35512 10.0908 6.35512C10.3627 6.35512 10.5833 6.57578 10.5833 6.84768ZM13.8346 9.89399C13.2741 9.33451 12.3663 9.33451 11.8058 9.89399C11.2463 10.4545 11.2463 11.3622 11.8058 11.9228C12.3663 12.4823 13.273 12.4823 13.8336 11.9228C14.3941 11.3696 14.4004 10.4671 13.8472 9.90654C13.843 9.90236 13.8388 9.89713 13.8336 9.89294L13.8346 9.89399ZM13.1381 11.2273C12.9624 11.403 12.6769 11.403 12.5002 11.2273C12.3235 11.0517 12.3245 10.7662 12.5002 10.5894C12.6759 10.4137 12.9614 10.4137 13.1381 10.5894C13.3138 10.7651 13.3138 11.0506 13.1381 11.2273ZM7.36341 9.47359C6.57072 9.47359 5.92862 10.1157 5.92862 10.9084C5.92862 11.7011 6.57072 12.3432 7.36341 12.3432C8.1561 12.3432 8.7982 11.7011 8.7982 10.9084C8.7982 10.5277 8.64656 10.1628 8.3778 9.89399C8.10904 9.62418 7.74407 9.47255 7.36341 9.47359ZM7.68237 11.2273C7.50668 11.403 7.22119 11.403 7.04445 11.2273C6.86876 11.0517 6.86876 10.7662 7.04445 10.5894C7.22014 10.4137 7.50563 10.4137 7.68237 10.5894C7.85806 10.7651 7.85806 11.0506 7.68237 11.2273Z" fill="#404040"/>
</svg>
